<svg xmlns="http://www.w3.org/2000/svg" viewBox="0 0 64 64" fill="none">
  <defs>
    <linearGradient id="bg" x1="10" y1="8" x2="54" y2="56" gradientUnits="userSpaceOnUse">
      <stop offset="0" stop-color="#0ea5e9" />
      <stop offset="0.48" stop-color="#6366f1" />
      <stop offset="1" stop-color="#8b5cf6" />
    </linearGradient>
    <linearGradient id="shine" x1="18" y1="12" x2="42" y2="44" gradientUnits="userSpaceOnUse">
      <stop offset="0" stop-color="#f8fafc" stop-opacity="0.85" />
      <stop offset="1" stop-color="#f8fafc" stop-opacity="0" />
    </linearGradient>
    <linearGradient id="mark" x1="24" y1="20" x2="46" y2="48" gradientUnits="userSpaceOnUse">
      <stop offset="0" stop-color="#facc15" />
      <stop offset="1" stop-color="#f97316" />
    </linearGradient>
    <filter id="glow" x="-20%" y="-20%" width="140%" height="140%">
      <feGaussianBlur in="SourceGraphic" stdDeviation="1.6" result="blur" />
      <feMerge>
        <feMergeNode in="blur" />
        <feMergeNode in="SourceGraphic" />
      </feMerge>
    </filter>
  </defs>
  <rect x="6.5" y="6.5" width="51" height="51" rx="14" fill="url(#bg)" stroke="#0f172a" stroke-opacity="0.15" stroke-width="1" />
  <path d="M46 18c-3.4-3.3-8.3-5.5-14-5.5S21.4 14.7 18 18c-3.4 3.3-5.5 8.1-5.5 13.8c0 5.7 2.1 10.5 5.5 13.8c3.4 3.3 8.3 5.5 14 5.5s10.6-2.2 14-5.5c3.4-3.3 5.5-8.1 5.5-13.8C51.5 26.1 49.4 21.3 46 18Z" fill="url(#shine)" />
  <g filter="url(#glow)">
    <path d="M22.8 40.2L30.6 22c.6-1.3 2.5-1.3 3.1 0l7.8 18.2c.4.9-.3 1.8-1.2 1.8h-3.3c-.6 0-1 .5-.9 1.1l1 5.1c.2 1.1-.9 1.9-1.9 1.4l-4.4-2.1a1 1 0 0 0-.9 0l-4.4 2.1c-1 .5-2.2-.3-1.9-1.4l1-5.1c.1-.6-.3-1.1-.9-1.1h-3.3c-.9 0-1.6-1-.2-1.8Z" fill="url(#mark)" />
  </g>
  <circle cx="32" cy="22" r="3.2" fill="#fef9c3" stroke="#facc15" stroke-width="1" />
  <path d="M26 31.5a6 6 0 0 1 12 0" stroke="#fde68a" stroke-width="1.4" stroke-linecap="round" />
</svg>
